HIERARCHY
ROOT root
{
	OFFSET 0.000000 0.000000 0.000000
	CHANNELS 6 Xposition Yposition Zposition Zrotation Yrotation Xrotation
	JOINT lhip
	{
		OFFSET 0.058581 -0.082280 -0.017664
		CHANNELS 3 Zrotation Yrotation Xrotation
		JOINT lknee
		{
			OFFSET 0.043451 -0.386469 0.008037
			CHANNELS 3 Zrotation Yrotation Xrotation
			JOINT lankle
			{
				OFFSET -0.014790 -0.426874 -0.037428
				CHANNELS 3 Zrotation Yrotation Xrotation
				JOINT ltoe
				{
					OFFSET 0.041054 -0.060286 0.122042
					CHANNELS 3 Zrotation Yrotation Xrotation
					End Site
					{
						OFFSET 0.000000 0.000000 0.000000
					}
				}
			}
		}
	}
	JOINT rhip
	{
		OFFSET -0.060310 -0.090513 -0.013543
		CHANNELS 3 Zrotation Yrotation Xrotation
		JOINT rknee
		{
			OFFSET -0.043257 -0.383688 -0.004843
			CHANNELS 3 Zrotation Yrotation Xrotation
			JOINT rankle
			{
				OFFSET 0.019056 -0.420046 -0.034562
				CHANNELS 3 Zrotation Yrotation Xrotation
				JOINT rtoe
				{
					OFFSET -0.034840 -0.062106 0.130323
					CHANNELS 3 Zrotation Yrotation Xrotation
					End Site
					{
						OFFSET 0.000000 0.000000 0.000000
					}
				}
			}
		}
	}
	JOINT lowerback
	{
		OFFSET 0.004439 0.124404 -0.038385
		CHANNELS 3 Zrotation Yrotation Xrotation
		JOINT upperback
		{
			OFFSET 0.004488 0.137956 0.026820
			CHANNELS 3 Zrotation Yrotation Xrotation
			JOINT chest
			{
				OFFSET -0.002265 0.056032 0.002855
				CHANNELS 3 Zrotation Yrotation Xrotation
				JOINT lowerneck
				{
					OFFSET -0.013390 0.211636 -0.033468
					CHANNELS 3 Zrotation Yrotation Xrotation
					JOINT upperneck
					{
						OFFSET 0.010113 0.088937 0.050410
						CHANNELS 3 Zrotation Yrotation Xrotation
						End Site
						{
							OFFSET 0.000000 0.000000 0.000000
						}
					}
				}
				JOINT lclavicle
				{
					OFFSET 0.071702 0.114000 -0.018898
					CHANNELS 3 Zrotation Yrotation Xrotation
					JOINT lshoulder
					{
						OFFSET 0.122921 0.045205 -0.019046
						CHANNELS 3 Zrotation Yrotation Xrotation
						JOINT lelbow
						{
							OFFSET 0.255332 -0.015649 -0.022946
							CHANNELS 3 Zrotation Yrotation Xrotation
							JOINT lwrist
							{
								OFFSET 0.265709 0.012698 -0.007375
								CHANNELS 3 Zrotation Yrotation Xrotation
								End Site
								{
									OFFSET 0.000000 0.000000 0.000000
								}
							}
						}
					}
				}
				JOINT rclavicle
				{
					OFFSET -0.082954 0.112472 -0.023707
					CHANNELS 3 Zrotation Yrotation Xrotation
					JOINT rshoulder
					{
						OFFSET -0.113228 0.046853 -0.008472
						CHANNELS 3 Zrotation Yrotation Xrotation
						JOINT relbow
						{
							OFFSET -0.260127 -0.014369 -0.031269
							CHANNELS 3 Zrotation Yrotation Xrotation
							JOINT rwrist
							{
								OFFSET -0.269108 0.006794 -0.006027
								CHANNELS 3 Zrotation Yrotation Xrotation
								End Site
								{
									OFFSET 0.000000 0.000000 0.000000
								}
							}
						}
					}
				}
			}
		}
	}
}
MOTION
Frames: 5
Frame Time: 0.033333
-0.088601 -1.702385 0.947004 -139.848598 -2.827629 90.802167 -0.671765 -6.490070 -16.763564 -7.916039 -8.514185 35.796393 4.144408 2.380472 -26.995080 0.000000 -0.000000 0.000000 -2.055910 -6.120616 -10.752212 -4.274206 -7.731275 55.838124 1.687363 -7.283568 -15.313879 0.000000 -0.000000 0.000000 -6.140993 8.273992 18.533972 -1.957666 -1.840126 -1.523742 1.444618 9.394258 -5.362914 -4.420967 -12.145248 13.934281 16.758996 -25.924167 -5.973026 15.313945 -31.912749 -22.954532 2.244848 -41.381796 -22.537182 78.551836 -49.163323 -70.025908 8.779264 -8.614304 -14.168332 -9.962632 42.331242 -12.676013 3.099370 45.606463 -30.761123 -78.627390 50.905493 -68.218796 -26.128279 17.555560 -17.939907 
-0.085413 -1.704461 0.942481 -138.464896 -3.659487 91.616956 -1.344197 -7.835515 -18.664896 -7.830057 -8.096190 36.855565 4.420696 2.348286 -26.946147 0.000000 -0.000000 0.000000 -1.483760 -5.515014 -10.829890 -5.502783 -8.696233 54.958324 1.035655 -9.032046 -16.807485 0.000000 -0.000000 0.000000 -6.360967 8.660957 18.992565 -2.306543 -1.578145 -1.602829 1.449803 9.426890 -4.114710 -3.670986 -11.636350 10.557669 17.372811 -25.839845 -6.976338 14.374544 -30.665312 -23.159348 -1.542456 -41.640695 -19.733663 84.007996 -49.002931 -73.465755 11.329116 -7.708605 -14.502812 -9.840567 41.952594 -13.795984 7.331610 47.657368 -27.025007 -80.543300 51.936560 -68.286222 -25.775196 17.503610 -18.228210 
-0.081711 -1.705964 0.938073 -136.800926 -4.317251 92.053194 -1.691954 -9.226637 -20.310263 -7.862048 -8.103414 38.077167 3.933473 1.991962 -27.188441 0.000000 -0.000000 0.000000 -1.064377 -5.352653 -10.976670 -6.505636 -9.267128 54.698907 0.749821 -9.707621 -18.923240 0.000000 -0.000000 0.000000 -6.465887 9.300698 19.833600 -2.317057 -1.342838 -1.128023 1.951965 9.418649 -4.313836 -3.445748 -13.208291 10.596944 17.600353 -26.532920 -7.399725 12.015333 -30.402745 -22.166722 -6.392956 -41.888054 -16.948621 89.978362 -49.034381 -77.620152 12.177039 -7.431229 -14.483038 -8.769225 42.256692 -13.219550 11.207622 48.480274 -23.795465 -82.519171 53.712603 -68.903598 -26.968635 17.505686 -17.568352 
-0.076927 -1.706752 0.932898 -135.688142 -4.992626 92.578426 -1.768444 -10.105135 -22.133830 -8.481093 -7.853823 39.347263 4.517286 2.003598 -27.434202 0.000000 -0.000000 0.000000 -1.036337 -4.877518 -11.946295 -7.021068 -9.397959 55.872555 0.244581 -9.933117 -20.186569 0.000000 -0.000000 0.000000 -6.343849 9.527862 21.121916 -2.602822 -1.013247 -1.066003 1.960618 9.546727 -4.101252 -3.182424 -14.183178 9.504339 18.092261 -26.619060 -7.919077 9.828424 -29.810738 -20.772037 -10.833149 -40.890731 -13.835954 97.481996 -49.194988 -82.627359 13.605416 -6.561619 -15.060503 -8.435343 42.096258 -13.742574 18.646963 49.959356 -18.028460 -86.442691 54.528054 -69.367590 -25.789353 17.341635 -17.407790 
-0.071668 -1.707097 0.927233 -134.676713 -5.342144 92.928363 -1.560811 -10.500356 -23.850937 -8.537232 -7.389661 40.935795 4.568664 0.981174 -27.981140 0.000000 -0.000000 0.000000 -1.103117 -4.649526 -13.307810 -7.585424 -9.593927 57.934414 0.399373 -8.941713 -21.067482 0.000000 -0.000000 0.000000 -6.406912 10.122500 22.317502 -2.516277 -0.407333 -0.763965 2.338315 9.423647 -3.816293 -2.181550 -14.776292 7.579022 18.243681 -27.382579 -8.375769 7.224261 -28.892951 -19.657820 -16.994560 -41.714272 -9.995679 104.123096 -49.043269 -87.418954 15.705876 -6.053714 -14.335811 -5.654622 41.430986 -12.104489 21.035070 49.315708 -14.849276 -90.449389 58.585732 -74.424465 -30.274821 16.584551 -16.514138 
